<svg xmlns="http://www.w3.org/2000/svg" viewBox="0 0 512 512" role="img" aria-label="MasterMe">
  <defs>
    <linearGradient id="bg" x1="70" y1="42" x2="450" y2="470" gradientUnits="userSpaceOnUse">
      <stop stop-color="#1d2948"/>
      <stop offset=".48" stop-color="#0a1020"/>
      <stop offset="1" stop-color="#111827"/>
    </linearGradient>
    <linearGradient id="gold" x1="132" y1="84" x2="380" y2="416" gradientUnits="userSpaceOnUse">
      <stop stop-color="#fff7c7"/>
      <stop offset=".42" stop-color="#ffd166"/>
      <stop offset="1" stop-color="#b7791f"/>
    </linearGradient>
    <linearGradient id="emerald" x1="154" y1="164" x2="358" y2="356" gradientUnits="userSpaceOnUse">
      <stop stop-color="#9fffe0"/>
      <stop offset=".45" stop-color="#38d39f"/>
      <stop offset="1" stop-color="#15936f"/>
    </linearGradient>
    <filter id="softShadow" x="-20%" y="-20%" width="140%" height="150%">
      <feDropShadow dx="0" dy="20" stdDeviation="20" flood-color="#000000" flood-opacity=".42"/>
    </filter>
  </defs>
  <rect width="512" height="512" rx="112" fill="url(#bg)"/>
  <path d="M256 58l152 58v118c0 96-58 172-152 220-94-48-152-124-152-220V116z" fill="#101827" stroke="url(#gold)" stroke-width="18"/>
  <path d="M168 168l43-40 45 55 45-55 43 40-19 76H187z" fill="url(#gold)" filter="url(#softShadow)"/>
  <path d="M157 342V210h39l60 68 60-68h39v132h-44v-70l-42 48h-26l-42-48v70z" fill="url(#emerald)" filter="url(#softShadow)"/>
  <path d="M173 374h166" stroke="url(#gold)" stroke-width="28" stroke-linecap="round"/>
  <path d="M178 406h156" stroke="#38d39f" stroke-width="12" stroke-linecap="round" opacity=".82"/>
  <circle cx="256" cy="108" r="16" fill="#fff7c7"/>
</svg>
